# xmcd
#
# Track frame offsets:
#	150
#	19212
#	34234
#	50374
#	65334
#	85140
#	106318
#	125991
#	149018
#	171860
#	192372
#	216551
#	235734
#	259547
#	277910
#
# Disc length: 3967 seconds
#
# Revision: 1
# Processed by: cddbd v1.5.1PL2 Copyright (c) Steve Scherf et al.
# Submitted via: audiograbber 1.83.01
#
DISCID=e10f7d0f
DTITLE=Mr. Myers - Disc 1  1981 to 1990
DYEAR=1900
DGENRE=Country
TTITLE0=Keep Me Going
TTITLE1=Go The Distance
TTITLE2=Fight Fire With Fire
TTITLE3=What's Done Is Done
TTITLE4=If We Go Danceing
TTITLE5=Do Right By Me
TTITLE6=Let The Tide Flow
TTITLE7=Sunny Days
TTITLE8=Lovely Day
TTITLE9=Patience
TTITLE10=Love Goes On
TTITLE11=Right Here Right Now
TTITLE12=Livin' From Day To Day
TTITLE13=Say I Love You
TTITLE14=Keep Me In Dub (instrumental)
EXTD=
EXTT0=
EXTT1=
EXTT2=
EXTT3=
EXTT4=
EXTT5=
EXTT6=
EXTT7=
EXTT8=
EXTT9=
EXTT10=
EXTT11=
EXTT12=
EXTT13=
EXTT14=
PLAYORDER=
